<svg width="140" height="24" viewBox="0 0 140 24" fill="none" xmlns="http://www.w3.org/2000/svg">
<g id="Ramsey">
<path d="M77.9601 15.88L74.3102 20.1558C77.2184 22.7083 81.2074 24 85.4015 24C91.15 24 94.9725 21.1831 94.9725 16.4437V16.3753C94.9725 12.0343 91.5902 10.3097 86.1466 9.14969C82.8638 8.42144 82.0534 7.95617 82.0534 6.89625V6.83015C82.0534 5.99994 82.832 5.33779 84.4216 5.33779C86.5182 5.33779 88.8858 6.13331 91.0483 7.62451L94.3293 3.08388C91.7571 1.06203 88.6139 0 84.5881 0C78.9078 0 75.425 3.1174 75.425 7.42527V7.49278C75.425 12.2652 79.3136 13.6587 84.3532 14.7844C87.5656 15.5132 88.343 16.0448 88.343 17.0062V17.0716C88.343 18.0671 87.396 18.6648 85.6385 18.6648C82.8994 18.6648 80.2961 17.7017 77.9601 15.88Z" fill="#003561"/>
<path fill-rule="evenodd" clip-rule="evenodd" d="M11.1944 0.397896H0V23.6033H6.5612V16.573H9.4347L14.2037 23.6033H21.779L16.1296 15.5133C19.0729 14.2884 21.0007 11.9351 21.0007 8.38641V8.32078C21.0007 6.03406 20.2915 4.24332 18.9046 2.9183C17.3139 1.32632 14.8125 0.397896 11.1944 0.397896ZM14.405 8.78464C14.405 10.4758 13.1236 11.5369 10.8893 11.5369H6.5612V5.96726H10.8548C13.054 5.96726 14.405 6.89615 14.405 8.71807V8.78464Z" fill="#003561"/>
<path d="M97.219 0.397786H112.117L115.489 5.868H103.712V9.38223H114.096V14.4535H103.712V18.1332H115.794V23.6034H97.219V0.397786Z" fill="#003561"/>
<path d="M127.757 8.8518L132.659 0.397786H140L131.004 14.8182V23.6034H124.409V14.9178L115.406 0.397786H122.889L127.757 8.8518Z" fill="#003561"/>
<path fill-rule="evenodd" clip-rule="evenodd" d="M36.5979 0.232021H30.2748L22.0964 19.2013L25.1632 23.6034H27.0972L28.7865 19.4586H37.919L39.6426 23.6034H46.677L36.5979 0.232021ZM30.7153 14.4535L33.3843 7.85676L36.0235 14.4535H30.7153Z" fill="#003561"/>
<path d="M59.996 9.38223L65.6421 0.397786H72.5756V23.6034H66.049V10.2764L59.996 19.3593H59.8613L53.8425 10.3428V23.6034H49.8032L47.4166 18.1192V0.397786H54.3499L59.996 9.38223Z" fill="#003561"/>
</g>
</svg>
